<?xml version="1.0" standalone="no"?>
<!DOCTYPE svg PUBLIC "-//W3C//DTD SVG 20010904//EN"
 "http://www.w3.org/TR/2001/REC-SVG-20010904/DTD/svg10.dtd">
<svg version="1.0" xmlns="http://www.w3.org/2000/svg"
 width="1024.000000pt" height="1024.000000pt" viewBox="0 0 1024.000000 1024.000000"
 preserveAspectRatio="xMidYMid meet">

<g transform="translate(0.000000,1024.000000) scale(0.100000,-0.100000)"
fill="#000000" stroke="none">
<path d="M0 5120 l0 -5120 5120 0 5120 0 0 5120 0 5120 -5120 0 -5120 0 0
-5120z m5352 2841 c67 -35 269 -144 448 -241 179 -98 420 -228 535 -290 116
-62 361 -195 545 -295 184 -100 425 -231 535 -290 110 -60 228 -126 261 -147
72 -45 140 -115 151 -155 4 -15 8 -660 8 -1433 l0 -1405 -22 -55 c-30 -74 -70
-120 -151 -173 -80 -53 -1494 -825 -2197 -1199 -88 -47 -184 -93 -214 -102
-74 -22 -194 -21 -262 3 -86 29 -46 8 -1404 746 -275 149 -618 336 -762 414
-288 156 -346 199 -390 289 l-28 57 -3 1410 c-3 1583 -9 1461 72 1532 24 21
286 170 582 332 297 162 726 396 954 521 690 377 943 513 990 532 34 14 67 17
137 16 91 -3 92 -3 215 -67z"/>
<path d="M4255 7277 c-456 -250 -900 -492 -985 -538 -85 -47 -212 -116 -282
-154 -109 -59 -125 -71 -110 -81 9 -6 145 -80 302 -164 535 -286 1085 -583
1456 -786 204 -111 392 -209 418 -218 94 -32 135 -20 373 106 611 326 1229
661 1791 971 100 55 179 104 175 108 -5 4 -235 130 -513 279 -278 150 -629
340 -780 423 -307 168 -779 421 -882 473 -37 19 -82 34 -100 34 -24 0 -249
-118 -863 -453z"/>
<path d="M2692 5019 l3 -1252 35 -29 c35 -29 239 -142 1460 -806 970 -527 904
-496 986 -464 42 16 843 447 2020 1088 165 90 311 176 325 190 l24 26 3 1240
c3 1187 2 1240 -15 1234 -10 -4 -137 -73 -283 -153 -484 -267 -651 -358 -1150
-625 -272 -146 -542 -290 -600 -321 -162 -86 -244 -111 -365 -111 -166 0 -157
-4 -1100 509 -214 116 -435 236 -490 265 -164 87 -550 297 -702 381 -78 44
-144 79 -147 79 -4 0 -5 -563 -4 -1251z m1776 -96 c143 -106 228 -406 292
-1042 32 -306 45 -404 58 -441 6 -16 20 25 56 162 66 248 101 345 143 387 32
32 36 33 93 29 45 -3 66 -10 84 -27 29 -28 65 -121 107 -279 17 -64 33 -118
34 -120 8 -8 37 156 70 388 56 401 94 531 175 604 36 32 46 36 95 36 159 0
198 -68 310 -540 38 -157 91 -339 104 -352 4 -5 36 52 71 124 81 165 150 272
192 298 44 27 132 27 171 1 16 -10 50 -41 76 -68 l47 -50 202 -6 c152 -5 210
-11 232 -22 74 -38 88 -179 22 -214 -13 -7 -113 -11 -277 -11 -279 0 -303 4
-345 57 -11 14 -26 23 -33 20 -7 -3 -46 -70 -86 -149 -117 -230 -174 -288
-279 -288 -128 0 -157 43 -234 340 -83 321 -120 455 -132 479 -13 23 -15 19
-34 -67 -12 -50 -37 -191 -57 -314 -78 -484 -101 -555 -199 -599 -52 -24 -131
-24 -176 -1 -56 28 -87 84 -118 211 l-28 113 -33 -123 c-53 -201 -100 -351
-126 -404 -35 -71 -66 -90 -142 -90 -54 0 -65 3 -91 28 -58 56 -94 214 -176
782 -60 409 -124 758 -137 749 -5 -3 -9 -16 -9 -29 0 -14 -11 -108 -25 -209
-63 -464 -132 -723 -210 -785 -34 -26 -106 -37 -155 -22 -81 24 -152 147 -211
364 -13 48 -26 87 -29 87 -3 -1 -20 -21 -37 -45 -18 -24 -49 -56 -70 -72 l-36
-28 -229 -3 -228 -3 -30 29 c-39 40 -48 91 -23 139 35 66 67 78 233 81 80 1
155 5 167 7 14 3 44 38 82 93 85 124 109 144 173 150 44 3 59 0 88 -20 54 -37
77 -80 134 -257 l53 -166 11 65 c6 36 28 180 47 320 73 514 120 676 209 716
43 20 130 13 164 -13z"/>
</g>
</svg>
